<?xml version="1.0" encoding="UTF-8"?>
<svg id="uuid-8938459a-a156-436d-abef-929120a9346b" data-name="Layer 1" xmlns="http://www.w3.org/2000/svg" viewBox="0 0 650 650">
  <g>
    <path d="M325,600c-73.46,0-142.51-28.61-194.45-80.55-51.94-51.94-80.55-121-80.55-194.45s28.6-142.51,80.55-194.45c51.94-51.94,121-80.55,194.45-80.55s142.51,28.6,194.45,80.55c51.94,51.94,80.55,121,80.55,194.45s-28.61,142.51-80.55,194.45-121,80.55-194.45,80.55Z" style="fill: #39ff88;"/>
    <path d="M325,100c60.1,0,116.6,23.4,159.1,65.9,42.5,42.5,65.9,99,65.9,159.1s-23.4,116.6-65.9,159.1c-42.5,42.5-99,65.9-159.1,65.9s-116.6-23.4-159.1-65.9c-42.5-42.5-65.9-99-65.9-159.1s23.4-116.6,65.9-159.1c42.5-42.5,99-65.9,159.1-65.9M325,0C145.51,0,0,145.51,0,325s145.51,325,325,325,325-145.51,325-325S504.49,0,325,0h0Z" style="fill: #fffff5;"/>
  </g>
  <rect x="200" y="200" width="250" height="250" rx="20" ry="20" style="fill: #0f1b2d;"/>
</svg>